<?xml version="1.0" encoding="UTF-8"?>
<svg xmlns="http://www.w3.org/2000/svg" xmlns:xlink="http://www.w3.org/1999/xlink" viewBox="0 0 40 40" width="40px" height="40px">
<g id="surface183435625">
<path style="fill-rule:nonzero;fill:rgb(40.392157%,29.411766%,68.627453%);fill-opacity:1;stroke-width:1;stroke-linecap:butt;stroke-linejoin:miter;stroke:rgb(100%,100%,100%);stroke-opacity:1;stroke-miterlimit:10;" d="M 38.499998 19.999999 C 38.499998 30.218749 30.218749 38.499998 19.999999 38.499998 C 9.78125 38.499998 1.5 30.218749 1.5 19.999999 C 1.5 9.78125 9.78125 1.5 19.999999 1.5 C 30.218749 1.5 38.499998 9.78125 38.499998 19.999999 Z M 38.499998 19.999999 " transform="matrix(1,0,0,1,0,0)"/>
<path style=" stroke:none;fill-rule:nonzero;fill:rgb(100%,100%,100%);fill-opacity:1;" d="M 32 12.621094 C 31.117188 13.011719 30 13.378906 29 13.5 C 30.019531 12.894531 31.632812 11.636719 32 10.5 C 31.050781 11.058594 29.328125 11.65625 28.207031 11.871094 C 27.3125 10.921875 26.03125 10.5 24.617188 10.5 C 21.898438 10.5 20 12.804688 20 15.5 L 20 17.5 C 16 17.5 12.101562 14.453125 9.671875 11.5 C 9.246094 12.222656 9.007812 13.066406 9.007812 13.957031 C 9.007812 15.777344 10.675781 17.621094 12 18.5 C 11.191406 18.476562 9.664062 17.859375 9 17.5 C 9 17.515625 9 17.535156 9 17.558594 C 9 19.925781 10.660156 21.53125 12.910156 21.980469 C 12.5 22.09375 12 22.5 10.070312 22.5 C 10.699219 24.433594 13.84375 25.457031 16 25.5 C 14.3125 26.808594 11.308594 27.5 9 27.5 C 8.601562 27.5 8.386719 27.523438 8 27.476562 C 10.179688 28.855469 13.21875 29.5 16 29.5 C 25.058594 29.5 30 22.582031 30 16.128906 C 30 15.917969 29.992188 15.207031 29.980469 15 C 30.949219 14.316406 31.34375 13.605469 32 12.621094 "/>
</g>
</svg>
